<svg xmlns="http://www.w3.org/2000/svg" width="50" height="51" viewBox="0 0 50 51" fill="none">
  <g clip-path="url(#clip0_1_891)">
    <path d="M34.4941 16.2593C34.0794 15.0827 33.3221 14.0572 32.3197 13.3146C31.3172 12.572 30.1155 12.1465 28.8691 12.0927H20.5358C18.8782 12.0927 17.2885 12.7511 16.1163 13.9232C14.9442 15.0953 14.2858 16.6851 14.2858 18.3427C14.2858 20.0003 14.9442 21.59 16.1163 22.7621C17.2885 23.9342 18.8782 24.5927 20.5358 24.5927H28.8691C30.5267 24.5927 32.1164 25.2511 33.2885 26.4232C34.4606 27.5953 35.1191 29.1851 35.1191 30.8427C35.1191 32.5003 34.4606 34.09 33.2885 35.2621C32.1164 36.4342 30.5267 37.0927 28.8691 37.0927H20.5358C19.2894 37.0388 18.0877 36.6133 17.0852 35.8707C16.0827 35.1281 15.3254 34.1026 14.9108 32.926" stroke="white" stroke-width="3.5" stroke-linecap="round" stroke-linejoin="round"/>
    <path d="M25 6.14027V12.3903M25 37.3903V43.6403" stroke="white" stroke-width="3.5" stroke-linecap="round" stroke-linejoin="round"/>
  </g>
  <defs>
    <clipPath id="clip0_1_891">
      <rect width="50" height="50" fill="white" transform="translate(0 0.187897)"/>
    </clipPath>
  </defs>
</svg>