<svg xmlns="http://www.w3.org/2000/svg" width="49" height="50" viewBox="0 0 49 50" fill="none">
  <g clip-path="url(#clip0_1_876)">
    <path d="M29.0938 40.5845V31.397C29.0938 30.9909 28.9324 30.6014 28.6453 30.3143C28.3581 30.0271 27.9686 29.8658 27.5625 29.8658H21.4375C21.0314 29.8658 20.6419 30.0271 20.3547 30.3143C20.0676 30.6014 19.9062 30.9909 19.9062 31.397V40.5845C19.9062 40.9906 19.7449 41.3801 19.4578 41.6673C19.1706 41.9544 18.7811 42.1158 18.375 42.1158H9.1875C8.78139 42.1158 8.39191 41.9544 8.10474 41.6673C7.81758 41.3801 7.65625 40.9906 7.65625 40.5845V22.8794C7.65968 22.6675 7.70547 22.4584 7.79094 22.2645C7.87641 22.0705 7.99982 21.8957 8.15391 21.7501L23.4664 7.83491C23.7487 7.57666 24.1174 7.43344 24.5 7.43344C24.8826 7.43344 25.2513 7.57666 25.5336 7.83491L40.8461 21.7501C41.0002 21.8957 41.1236 22.0705 41.2091 22.2645C41.2945 22.4584 41.3403 22.6675 41.3438 22.8794V40.5845C41.3438 40.9906 41.1824 41.3801 40.8953 41.6673C40.6081 41.9544 40.2186 42.1158 39.8125 42.1158H30.625C30.2189 42.1158 29.8294 41.9544 29.5422 41.6673C29.2551 41.3801 29.0938 40.9906 29.0938 40.5845Z" stroke="white" stroke-width="1.53125" stroke-linecap="round" stroke-linejoin="round"/>
  </g>
  <defs>
    <clipPath id="clip0_1_876">
      <rect width="49" height="49" fill="white" transform="translate(0 0.772034)"/>
    </clipPath>
  </defs>
</svg>