<svg xmlns="http://www.w3.org/2000/svg" width="50" height="51" viewBox="0 0 50 51" fill="none">
  <g clip-path="url(#clip0_1_988)">
    <path d="M35.4167 38.8944C33.7825 39.6434 32.006 40.0311 30.2083 40.0311C28.4107 40.0311 26.6342 39.6434 25 38.8944C23.2916 38.3046 21.4757 38.0924 19.6774 38.2722C17.879 38.452 16.1411 39.0197 14.5833 39.936C15.6988 39.5499 16.6821 38.8559 17.4195 37.9341C18.1569 37.0124 18.6182 35.9007 18.75 34.7277V19.1027C18.761 17.2776 19.3709 15.5065 20.486 14.0616C21.6011 12.6166 23.1598 11.5778 24.9225 11.1046C26.6853 10.6313 28.5547 10.7499 30.2435 11.4421C31.9324 12.1343 33.3472 13.3618 34.2708 14.936M28.9583 27.436H14.375" stroke="white" stroke-width="2" stroke-linecap="round" stroke-linejoin="round"/>
  </g>
  <defs>
    <clipPath id="clip0_1_988">
      <rect width="50" height="50" fill="white" transform="translate(0 0.352722)"/>
    </clipPath>
  </defs>
</svg>